<svg id="Layer_1" data-name="Layer 1" xmlns="http://www.w3.org/2000/svg" viewBox="0 0 103.38 128.88"><defs><style>.cls-1{fill:#fd397a;}.cls-2{fill:#ffb822;}.cls-3{fill:#0abb87;}.cls-4{fill:#5d78ff;}</style></defs><title>databuilder_ico</title><path class="cls-1" d="M677.65,376h-7.54a10.71,10.71,0,0,0-10.7,10.7v23.19a10.71,10.71,0,0,0,10.7,10.7h7.54Z" transform="translate(-631.03 -320.06)"/><path class="cls-2" d="M698.49,347.59a10.71,10.71,0,0,0-10.71,10.7v62.27h7.55a10.71,10.71,0,0,0,10.7-10.7V347.59Z" transform="translate(-631.03 -320.06)"/><path class="cls-3" d="M734.4,320.06h-7.54a10.71,10.71,0,0,0-10.7,10.7v79.1a20.86,20.86,0,0,1-20.83,20.84h-7.55v18.24h7.55a39.08,39.08,0,0,0,39.07-39.08v-89.8Z" transform="translate(-631.03 -320.06)"/><path class="cls-4" d="M677.65,430.7h-7.54a20.87,20.87,0,0,1-20.84-20.84V386.67a20.87,20.87,0,0,1,20.84-20.84h7.54V347.59h-7.54A39.08,39.08,0,0,0,631,386.67v23.19a39.08,39.08,0,0,0,39.08,39.08h17.64V430.7Z" transform="translate(-631.03 -320.06)"/></svg>